<svg viewBox="0 0 420 420" xmlns="http://www.w3.org/2000/svg" role="img" aria-label="Team Tech Auto Electric">
  <defs>
    <linearGradient id="grad" x1="0%" y1="0%" x2="100%" y2="100%">
      <stop offset="0%" stop-color="#0066ff"/>
      <stop offset="100%" stop-color="#0dffc9"/>
    </linearGradient>
  </defs>
  <rect x="0" y="0" width="420" height="420" rx="120" fill="url(#grad)"/>

  <!-- fa-bolt, centered -->
  <g transform="translate(101,64) scale(0.481)">
    <path fill="#ffffff" d="M349.4 44.6c5.9-13.7 1.5-29.7-10.6-38.5s-28.6-8-39.9 1.8l-256 224c-10 8.8-13.6 22.9-9 35.3S50.7 288 64 288H175.5L98.6 467.4c-5.9 13.7-1.5 29.7 10.6 38.5s28.6 8 39.9-1.8l256-224c10-8.8 13.6-22.9 9-35.3s-16.6-20.7-30-20.7H272.5L349.4 44.6z"/>
  </g>
</svg>
